FILE "Third World War (1994)(Extreme)(US).img" BINARY
  TRACK 01 MODE1/2352
    INDEX 01 00:00:00
  TRACK 02 AUDIO
    PREGAP 00:02:00
    INDEX 01 01:33:62
  TRACK 03 AUDIO
    INDEX 00 02:39:21
    INDEX 01 02:41:21
  TRACK 04 AUDIO
    INDEX 00 03:58:21
    INDEX 01 04:00:21
  TRACK 05 AUDIO
    INDEX 00 05:45:46
    INDEX 01 05:47:48
  TRACK 06 AUDIO
    INDEX 00 07:11:27
    INDEX 01 07:13:27
  TRACK 07 AUDIO
    INDEX 00 08:36:26
    INDEX 01 08:38:26
  TRACK 08 AUDIO
    INDEX 00 10:01:52
    INDEX 01 10:03:52
  TRACK 09 AUDIO
    INDEX 00 11:05:51
    INDEX 01 11:07:53
  TRACK 10 AUDIO
    INDEX 00 12:49:71
    INDEX 01 12:51:71
  TRACK 11 AUDIO
    INDEX 00 14:15:06
    INDEX 01 14:17:06
  TRACK 12 AUDIO
    ISRC 4P4006400162
    INDEX 00 16:15:26
    INDEX 01 16:17:28
  TRACK 13 AUDIO
    INDEX 00 18:18:02
    INDEX 01 18:20:02
  TRACK 14 AUDIO
    INDEX 00 20:22:38
    INDEX 01 20:24:40
  TRACK 15 AUDIO
    INDEX 00 21:17:31
    INDEX 01 21:19:33
  TRACK 16 AUDIO
    INDEX 00 22:50:23
    INDEX 01 22:52:25
  TRACK 17 AUDIO
    INDEX 00 23:47:53
    INDEX 01 23:49:55
  TRACK 18 AUDIO
    INDEX 00 24:50:06
    INDEX 01 24:52:08
  TRACK 19 AUDIO
    INDEX 00 24:59:19
    INDEX 01 25:01:19
  TRACK 20 AUDIO
    INDEX 00 25:08:29
    INDEX 01 25:10:29
  TRACK 21 AUDIO
    INDEX 00 25:17:63
    INDEX 01 25:19:65
  TRACK 22 AUDIO
    INDEX 00 25:27:24
    INDEX 01 25:29:24
  TRACK 23 AUDIO
    INDEX 00 25:37:33
    INDEX 01 25:39:35
  TRACK 24 AUDIO
    INDEX 00 25:47:47
    INDEX 01 25:49:47
  TRACK 25 AUDIO
    INDEX 00 25:57:56
    INDEX 01 25:59:56
  TRACK 26 AUDIO
    INDEX 00 26:10:69
    INDEX 01 26:12:69
  TRACK 27 AUDIO
    INDEX 00 26:21:44
    INDEX 01 26:23:44
  TRACK 28 AUDIO
    INDEX 00 26:28:62
    INDEX 01 26:30:62
  TRACK 29 AUDIO
    INDEX 00 26:35:66
    INDEX 01 26:37:68
  TRACK 30 AUDIO
    INDEX 00 26:42:69
    INDEX 01 26:44:69
  TRACK 31 AUDIO
    INDEX 00 26:51:67
    INDEX 01 26:53:67
  TRACK 32 AUDIO
    INDEX 00 27:01:66
    INDEX 01 27:03:66
  TRACK 33 AUDIO
    INDEX 00 27:10:36
    INDEX 01 27:12:36
  TRACK 34 AUDIO
    INDEX 00 27:18:51
    INDEX 01 27:20:53
  TRACK 35 AUDIO
    INDEX 00 27:27:71
    INDEX 01 27:29:71
  TRACK 36 AUDIO
    INDEX 00 27:36:34
    INDEX 01 27:38:34
  TRACK 37 AUDIO
    INDEX 00 27:46:52
    INDEX 01 27:48:52
  TRACK 38 AUDIO
    INDEX 00 27:55:49
    INDEX 01 27:57:49
  TRACK 39 AUDIO
    INDEX 00 28:04:38
    INDEX 01 28:06:38
  TRACK 40 AUDIO
    INDEX 00 28:14:09
    INDEX 01 28:16:09
  TRACK 41 AUDIO
    INDEX 00 28:24:34
    INDEX 01 28:26:34
  TRACK 42 AUDIO
    INDEX 00 28:34:66
    INDEX 01 28:36:68
  TRACK 43 AUDIO
    INDEX 00 28:44:47
    INDEX 01 28:46:47
  TRACK 44 AUDIO
    INDEX 00 28:58:02
    INDEX 01 29:00:02
  TRACK 45 AUDIO
    INDEX 00 29:07:33
    INDEX 01 29:09:35
  TRACK 46 AUDIO
    INDEX 00 29:21:21
    INDEX 01 29:23:21
  TRACK 47 AUDIO
    INDEX 00 29:35:52
    INDEX 01 29:37:52
  TRACK 48 AUDIO
    INDEX 00 31:39:31
    INDEX 01 31:41:33
  TRACK 49 AUDIO
    INDEX 00 33:43:14
    INDEX 01 33:45:14
  TRACK 50 AUDIO
    INDEX 00 35:46:68
    INDEX 01 35:48:70
  TRACK 51 AUDIO
    INDEX 00 37:50:51
    INDEX 01 37:52:51
  TRACK 52 AUDIO
    INDEX 00 39:54:32
    INDEX 01 39:56:32
  TRACK 53 AUDIO
    INDEX 00 40:48:41
    INDEX 01 40:50:41
  TRACK 54 AUDIO
    INDEX 00 42:20:61
    INDEX 01 42:22:63
  TRACK 55 AUDIO
    INDEX 00 43:17:06
    INDEX 01 43:19:06
  TRACK 56 AUDIO
    INDEX 00 44:18:49
    INDEX 01 44:20:49
